<svg width="32" height="32" viewBox="0 0 32 32" fill="none" xmlns="http://www.w3.org/2000/svg">
<g clip-path="url(#clip0_2001_448)">
<path d="M-9.15527e-05 16.0001C-9.15527e-05 22.9867 4.47991 28.9067 10.6666 31.0934V0.906738C4.47991 3.09341 -9.15527e-05 9.0134 -9.15527e-05 16.0001Z" fill="#2A5F9E"/>
<path d="M31.9999 16.0001C31.9999 9.0134 27.5732 3.09341 21.3332 0.906738V31.0934C27.5732 28.9067 31.9999 22.9867 31.9999 16.0001Z" fill="#ED4C5C"/>
<path d="M10.6667 31.0933C12.3201 31.68 14.1334 32 16.0001 32C17.8667 32 19.6801 31.68 21.3334 31.0933V0.906667C19.6801 0.32 17.9201 0 16.0001 0C14.0801 0 12.3201 0.32 10.6667 0.906667V31.0933Z" fill="white"/>
</g>
<defs>
<clipPath id="clip0_2001_448">
<rect width="32" height="32" fill="white"/>
</clipPath>
</defs>
</svg>
