<svg width="32" height="32" viewBox="0 0 32 32" fill="none" xmlns="http://www.w3.org/2000/svg">
<g clip-path="url(#clip0_2001_553)">
<path d="M16.4265 0C9.43986 0 3.51986 4.48 1.33319 10.6667H31.5199C29.3332 4.48 23.4132 0 16.4265 0Z" fill="#141414"/>
<path d="M15.9998 31.9999C22.9864 31.9999 28.9064 27.5733 31.0931 21.3333H0.906433C3.0931 27.5733 9.0131 31.9999 15.9998 31.9999Z" fill="#FFCD05"/>
<path d="M0.906575 10.6667C0.319908 12.3201 -9.15527e-05 14.1334 -9.15527e-05 16.0001C-9.15527e-05 17.8667 0.319908 19.6801 0.906575 21.3334H31.0932C31.6799 19.6801 31.9999 17.8667 31.9999 16.0001C31.9999 14.1334 31.6799 12.3201 31.0932 10.6667H0.906575Z" fill="#ED1F24"/>
</g>
<defs>
<clipPath id="clip0_2001_553">
<rect width="32" height="32" fill="white"/>
</clipPath>
</defs>
</svg>
