<svg width="32" height="32" viewBox="0 0 32 32" fill="none" xmlns="http://www.w3.org/2000/svg">
<g clip-path="url(#clip0_2001_453)">
<path d="M15.9464 0C9.0131 0 3.0931 4.48 0.906433 10.6667H31.0931C28.8531 4.48 22.9331 0 15.9464 0Z" fill="#F2B200"/>
<path d="M15.9464 31.9999C22.9331 31.9999 28.8531 27.5733 31.0398 21.3333H0.906433C3.0931 27.5733 9.0131 31.9999 15.9464 31.9999Z" fill="#83BF4F"/>
<path d="M0.906575 10.6667C0.319908 12.3201 -9.15527e-05 14.1334 -9.15527e-05 16.0001C-9.15527e-05 17.8667 0.319908 19.6801 0.906575 21.3334H31.0932C31.6799 19.6801 31.9999 17.8667 31.9999 16.0001C31.9999 14.1334 31.6799 12.3201 31.0932 10.6667H0.906575Z" fill="white"/>
<path d="M15.9465 20.2667C18.303 20.2667 20.2132 18.3565 20.2132 16.0001C20.2132 13.6437 18.303 11.7334 15.9465 11.7334C13.5901 11.7334 11.6799 13.6437 11.6799 16.0001C11.6799 18.3565 13.5901 20.2667 15.9465 20.2667Z" fill="#428BC1"/>
<path d="M15.9467 19.7333C18.0086 19.7333 19.68 18.0618 19.68 15.9999C19.68 13.9381 18.0086 12.2666 15.9467 12.2666C13.8848 12.2666 12.2134 13.9381 12.2134 15.9999C12.2134 18.0618 13.8848 19.7333 15.9467 19.7333Z" fill="white"/>
<path d="M14.5598 12.7997C14.707 12.7997 14.8264 12.6803 14.8264 12.533C14.8264 12.3857 14.707 12.2664 14.5598 12.2664C14.4125 12.2664 14.2931 12.3857 14.2931 12.533C14.2931 12.6803 14.4125 12.7997 14.5598 12.7997Z" fill="#428BC1"/>
<path d="M13.7065 13.2797C13.8538 13.2797 13.9732 13.1603 13.9732 13.013C13.9732 12.8657 13.8538 12.7463 13.7065 12.7463C13.5592 12.7463 13.4398 12.8657 13.4398 13.013C13.4398 13.1603 13.5592 13.2797 13.7065 13.2797Z" fill="#428BC1"/>
<path d="M13.0133 13.9733C13.1606 13.9733 13.28 13.8539 13.28 13.7066C13.28 13.5593 13.1606 13.4399 13.0133 13.4399C12.866 13.4399 12.7466 13.5593 12.7466 13.7066C12.7466 13.8539 12.866 13.9733 13.0133 13.9733Z" fill="#428BC1"/>
<path d="M12.5331 14.8265C12.6804 14.8265 12.7998 14.7072 12.7998 14.5599C12.7998 14.4126 12.6804 14.2932 12.5331 14.2932C12.3858 14.2932 12.2664 14.4126 12.2664 14.5599C12.2664 14.7072 12.3858 14.8265 12.5331 14.8265Z" fill="#428BC1"/>
<path d="M12.2665 15.7865C12.4137 15.7865 12.5331 15.6671 12.5331 15.5198C12.5331 15.3726 12.4137 15.2532 12.2665 15.2532C12.1192 15.2532 11.9998 15.3726 11.9998 15.5198C11.9998 15.6671 12.1192 15.7865 12.2665 15.7865Z" fill="#428BC1"/>
<path d="M12.2665 16.7465C12.4137 16.7465 12.5331 16.6271 12.5331 16.4798C12.5331 16.3325 12.4137 16.2131 12.2665 16.2131C12.1192 16.2131 11.9998 16.3325 11.9998 16.4798C11.9998 16.6271 12.1192 16.7465 12.2665 16.7465Z" fill="#428BC1"/>
<path d="M12.5331 17.7064C12.6804 17.7064 12.7998 17.587 12.7998 17.4398C12.7998 17.2925 12.6804 17.1731 12.5331 17.1731C12.3858 17.1731 12.2664 17.2925 12.2664 17.4398C12.2664 17.587 12.3858 17.7064 12.5331 17.7064Z" fill="#428BC1"/>
<path d="M13.0133 18.5599C13.1606 18.5599 13.28 18.4406 13.28 18.2933C13.28 18.146 13.1606 18.0266 13.0133 18.0266C12.866 18.0266 12.7466 18.146 12.7466 18.2933C12.7466 18.4406 12.866 18.5599 13.0133 18.5599Z" fill="#428BC1"/>
<path d="M13.7065 19.2531C13.8538 19.2531 13.9732 19.1337 13.9732 18.9864C13.9732 18.8391 13.8538 18.7197 13.7065 18.7197C13.5592 18.7197 13.4398 18.8391 13.4398 18.9864C13.4398 19.1337 13.5592 19.2531 13.7065 19.2531Z" fill="#428BC1"/>
<path d="M14.5598 19.733C14.707 19.733 14.8264 19.6136 14.8264 19.4664C14.8264 19.3191 14.707 19.1997 14.5598 19.1997C14.4125 19.1997 14.2931 19.3191 14.2931 19.4664C14.2931 19.6136 14.4125 19.733 14.5598 19.733Z" fill="#428BC1"/>
<path d="M15.4664 19.9464C15.6137 19.9464 15.7331 19.827 15.7331 19.6798C15.7331 19.5325 15.6137 19.4131 15.4664 19.4131C15.3191 19.4131 15.1997 19.5325 15.1997 19.6798C15.1997 19.827 15.3191 19.9464 15.4664 19.9464Z" fill="#428BC1"/>
<path d="M16.2132 19.7331C16.2132 19.5731 16.3199 19.4664 16.4266 19.4131C16.5866 19.4131 16.6932 19.5198 16.7466 19.6264C16.7466 19.7864 16.6399 19.8931 16.5332 19.9464C16.3199 19.9998 16.2132 19.8931 16.2132 19.7331Z" fill="#428BC1"/>
<path d="M17.3863 19.733C17.5336 19.733 17.653 19.6136 17.653 19.4664C17.653 19.3191 17.5336 19.1997 17.3863 19.1997C17.2391 19.1997 17.1197 19.3191 17.1197 19.4664C17.1197 19.6136 17.2391 19.733 17.3863 19.733Z" fill="#428BC1"/>
<path d="M18.2399 19.2531C18.3872 19.2531 18.5066 19.1337 18.5066 18.9864C18.5066 18.8391 18.3872 18.7197 18.2399 18.7197C18.0927 18.7197 17.9733 18.8391 17.9733 18.9864C17.9733 19.1337 18.0927 19.2531 18.2399 19.2531Z" fill="#428BC1"/>
<path d="M18.9332 18.5599C19.0805 18.5599 19.1999 18.4406 19.1999 18.2933C19.1999 18.146 19.0805 18.0266 18.9332 18.0266C18.7859 18.0266 18.6665 18.146 18.6665 18.2933C18.6665 18.4406 18.7859 18.5599 18.9332 18.5599Z" fill="#428BC1"/>
<path d="M19.4132 17.7064C19.5605 17.7064 19.6799 17.587 19.6799 17.4398C19.6799 17.2925 19.5605 17.1731 19.4132 17.1731C19.2659 17.1731 19.1465 17.2925 19.1465 17.4398C19.1465 17.587 19.2659 17.7064 19.4132 17.7064Z" fill="#428BC1"/>
<path d="M19.6798 16.7465C19.8271 16.7465 19.9465 16.6271 19.9465 16.4798C19.9465 16.3325 19.8271 16.2131 19.6798 16.2131C19.5326 16.2131 19.4132 16.3325 19.4132 16.4798C19.4132 16.6271 19.5326 16.7465 19.6798 16.7465Z" fill="#428BC1"/>
<path d="M19.6799 15.7865C19.5199 15.7865 19.4133 15.6798 19.3599 15.5732C19.3599 15.4132 19.4666 15.3065 19.5733 15.2532C19.7333 15.2532 19.8399 15.3598 19.8933 15.4665C19.9466 15.6265 19.8399 15.7332 19.6799 15.7865Z" fill="#428BC1"/>
<path d="M19.4132 14.8265C19.5605 14.8265 19.6799 14.7072 19.6799 14.5599C19.6799 14.4126 19.5605 14.2932 19.4132 14.2932C19.2659 14.2932 19.1465 14.4126 19.1465 14.5599C19.1465 14.7072 19.2659 14.8265 19.4132 14.8265Z" fill="#428BC1"/>
<path d="M18.9332 13.9733C19.0805 13.9733 19.1999 13.8539 19.1999 13.7066C19.1999 13.5593 19.0805 13.4399 18.9332 13.4399C18.7859 13.4399 18.6665 13.5593 18.6665 13.7066C18.6665 13.8539 18.7859 13.9733 18.9332 13.9733Z" fill="#428BC1"/>
<path d="M18.2399 13.2797C18.3872 13.2797 18.5066 13.1603 18.5066 13.013C18.5066 12.8657 18.3872 12.7463 18.2399 12.7463C18.0927 12.7463 17.9733 12.8657 17.9733 13.013C17.9733 13.1603 18.0927 13.2797 18.2399 13.2797Z" fill="#428BC1"/>
<path d="M17.6531 12.64C17.5997 12.8 17.4397 12.8533 17.2797 12.8C17.1197 12.7466 17.0664 12.5866 17.1197 12.4266C17.1731 12.2666 17.3331 12.2133 17.4931 12.2666C17.6531 12.3733 17.7064 12.5333 17.6531 12.64ZM16.6931 12.32C16.6931 12.48 16.5331 12.5866 16.3731 12.5333C16.2131 12.5333 16.1064 12.3733 16.1597 12.2133C16.1597 12.0533 16.3197 11.9466 16.4797 12C16.6397 12.0533 16.7464 12.2133 16.6931 12.32ZM15.7331 12.2666C15.7331 12.4266 15.6264 12.5333 15.5197 12.5866C15.3597 12.5866 15.2531 12.48 15.1997 12.3733C15.1997 12.2133 15.3064 12.1066 15.4131 12.0533C15.5731 12 15.7331 12.1066 15.7331 12.2666Z" fill="#428BC1"/>
<path d="M15.9466 16.8C16.3884 16.8 16.7466 16.4418 16.7466 16C16.7466 15.5581 16.3884 15.2 15.9466 15.2C15.5047 15.2 15.1466 15.5581 15.1466 16C15.1466 16.4418 15.5047 16.8 15.9466 16.8Z" fill="#428BC1"/>
<path d="M15.9464 12.2664L15.8397 14.5597L15.9464 15.9997L16.1064 14.5597L15.9464 12.2664ZM14.9864 12.373L15.4664 14.6664L15.9464 15.9997L15.733 14.5597L14.9864 12.373Z" fill="#428BC1"/>
<path d="M14.0797 12.7463L15.1464 14.8263L15.9464 15.9997L15.3597 14.6663L14.0797 12.7463ZM13.3331 13.333L14.8797 15.093L15.9464 15.9997L15.0397 14.8797L13.3331 13.333Z" fill="#428BC1"/>
<path d="M12.7466 14.1331L14.6666 15.4131L15.9466 15.9997L14.7733 15.1464L12.7466 14.1331Z" fill="#428BC1"/>
<path d="M12.3733 15.0398L14.5599 15.7331L15.9466 15.9998L14.6133 15.5198L12.3733 15.0398ZM12.2133 15.9998L14.5599 16.1065L15.9466 15.9998L14.5599 15.8931L12.2133 15.9998Z" fill="#428BC1"/>
<path d="M12.3732 16.9598L14.6132 16.4798L15.9465 15.9998L14.5598 16.2664L12.3732 16.9598ZM12.7465 17.8664L14.7732 16.8531L15.9465 15.9998L14.6665 16.5864L12.7465 17.8664Z" fill="#428BC1"/>
<path d="M13.3331 18.6131L15.0397 17.1198L15.9464 15.9998L14.8797 16.9064L13.3331 18.6131ZM14.0797 19.2531L15.3597 17.2798L15.9464 15.9998L15.1464 17.1731L14.0797 19.2531Z" fill="#428BC1"/>
<path d="M14.9864 19.6264L15.733 17.4398L15.9464 15.9998L15.4664 17.3331L14.9864 19.6264ZM15.9464 19.7331L16.1064 17.4398L15.9464 15.9998L15.8397 17.4398L15.9464 19.7331ZM16.9064 19.6264L16.4797 17.3331L15.9464 15.9998L16.213 17.4398L16.9064 19.6264Z" fill="#428BC1"/>
<path d="M17.813 19.2531L16.7997 17.1731L15.9464 15.9998L16.5864 17.3331L17.813 19.2531ZM18.613 18.6131L17.0664 16.9064L15.9464 15.9998L16.9064 17.1198L18.613 18.6131Z" fill="#428BC1"/>
<path d="M19.1997 17.8665L17.2797 16.5865L15.9464 15.9998L17.1197 16.8531L19.1997 17.8665ZM19.573 16.9598L17.3864 16.2665L15.9464 15.9998L17.333 16.4798L19.573 16.9598ZM19.6797 15.9998L17.3864 15.8398L15.9464 15.9998L17.3864 16.1065L19.6797 15.9998ZM19.573 15.0398L17.333 15.5198L15.9464 15.9998L17.3864 15.7331L19.573 15.0398Z" fill="#428BC1"/>
<path d="M19.1997 14.1331L17.1197 15.1465L15.9464 15.9998L17.2797 15.4131L19.1997 14.1331ZM18.613 13.3865L16.9064 14.8798L15.9464 15.9998L17.0664 15.0931L18.613 13.3865Z" fill="#428BC1"/>
<path d="M17.813 12.7463L16.5864 14.7197L15.9464 15.9997L16.7997 14.8263L17.813 12.7463Z" fill="#428BC1"/>
<path d="M16.9597 12.3733L16.213 14.56L15.9464 16L16.4797 14.6666L16.9597 12.3733Z" fill="#428BC1"/>
</g>
<defs>
<clipPath id="clip0_2001_453">
<rect width="32" height="32" fill="white"/>
</clipPath>
</defs>
</svg>
