<svg width="32" height="32" viewBox="0 0 32 32" fill="none" xmlns="http://www.w3.org/2000/svg">
<g clip-path="url(#clip0_2001_565)">
<path d="M24.5333 2.45333C22.0266 0.906667 19.1466 0 15.9999 0V2.45333H24.5333Z" fill="#ED4C5C"/>
<path d="M15.9999 4.9067H27.5199C26.6133 4.00004 25.5999 3.1467 24.5333 2.45337H15.9999V4.9067Z" fill="white"/>
<path d="M15.9999 7.36007H29.4933C28.9066 6.45341 28.2666 5.65341 27.5733 4.90674H15.9999V7.36007Z" fill="#ED4C5C"/>
<path d="M15.9999 9.81344H30.7733C30.3999 8.96011 29.9733 8.10677 29.4933 7.36011H15.9999V9.81344Z" fill="white"/>
<path d="M15.9999 12.2666H31.5733C31.3599 11.4132 31.0933 10.6132 30.7733 9.81323H15.9999V12.2666Z" fill="#ED4C5C"/>
<path d="M15.9999 14.7734H31.9466C31.8933 13.9201 31.7333 13.1201 31.5733 12.3201H15.9999V14.7734Z" fill="white"/>
<path d="M31.9466 14.7734H15.9999V16.0001H-0.00012207C-0.00012207 16.4268 -0.000122122 16.8001 0.0532112 17.2268H31.9466C31.9999 16.8001 31.9999 16.4268 31.9999 16.0001C31.9999 15.5734 31.9999 15.1468 31.9466 14.7734Z" fill="#ED4C5C"/>
<path d="M0.426495 19.6799H31.5732C31.7865 18.8799 31.8932 18.0799 31.9465 17.2266H0.0531616C0.106495 18.0266 0.213162 18.8799 0.426495 19.6799Z" fill="white"/>
<path d="M1.22676 22.1333H30.7734C31.0934 21.3333 31.3601 20.5333 31.5734 19.6799H0.426758C0.640091 20.5333 0.906758 21.3333 1.22676 22.1333Z" fill="#ED4C5C"/>
<path d="M2.50656 24.5866H29.4932C29.9732 23.7866 30.3999 22.9866 30.7732 22.1333H1.22656C1.5999 22.9866 2.02656 23.7866 2.50656 24.5866Z" fill="white"/>
<path d="M4.42659 27.04H27.5733C28.2666 26.2933 28.9599 25.44 29.4933 24.5867H2.50659C3.03993 25.4933 3.73326 26.2933 4.42659 27.04Z" fill="#ED4C5C"/>
<path d="M7.41336 29.4934H24.5867C25.7067 28.8 26.6667 27.9467 27.5734 27.04H4.4267C5.33336 28 6.3467 28.8 7.41336 29.4934Z" fill="white"/>
<path d="M15.9999 32.0001C19.1466 32.0001 22.0799 31.0934 24.5866 29.4934H7.41327C9.91994 31.0934 12.8533 32.0001 15.9999 32.0001Z" fill="#ED4C5C"/>
<path d="M7.46667 2.45333C6.34667 3.14667 5.33333 4 4.42667 4.90667C3.68 5.65333 3.04 6.50667 2.50667 7.36C2.02667 8.16 1.54667 8.96 1.22667 9.81334C0.906667 10.6133 0.64 11.4133 0.426667 12.2667C0.213333 13.0667 0.106667 13.8667 0.0533333 14.72C-5.16574e-08 15.1467 0 15.5733 0 16H16V0C12.8533 0 9.97334 0.906667 7.46667 2.45333Z" fill="#428BC1"/>
<path d="M12.2665 0.533447L12.5332 1.33345H13.3332L12.6932 1.86678L12.9065 2.66678L12.2665 2.18678L11.6265 2.66678L11.8399 1.86678L11.1999 1.33345H11.9999L12.2665 0.533447ZM14.3999 3.73345L14.6665 4.53345H15.4665L14.8265 5.06678L15.0399 5.86678L14.3999 5.38678L13.7599 5.86678L13.9732 5.06678L13.3332 4.53345H14.1332L14.3999 3.73345ZM10.1332 3.73345L10.3999 4.53345H11.1999L10.5599 5.06678L10.7732 5.86678L10.1332 5.38678L9.49319 5.86678L9.70652 5.06678L9.06652 4.53345H9.86652L10.1332 3.73345ZM12.2665 6.93345L12.5332 7.73345H13.3332L12.6932 8.26678L12.9065 9.06678L12.2665 8.58678L11.6265 9.06678L11.8399 8.26678L11.1999 7.73345H11.9999L12.2665 6.93345ZM7.99986 6.93345L8.26652 7.73345H9.06652L8.42652 8.26678L8.63986 9.06678L7.99986 8.58678L7.35986 9.06678L7.57319 8.26678L6.93319 7.73345H7.73319L7.99986 6.93345ZM3.73319 6.93345L3.99986 7.73345H4.79986L4.15986 8.26678L4.37319 9.06678L3.73319 8.58678L3.09319 9.06678L3.30652 8.26678L2.66652 7.73345H3.46652L3.73319 6.93345ZM14.3999 10.1334L14.6665 10.9334H15.4665L14.8265 11.4668L15.0399 12.2668L14.3999 11.7868L13.7599 12.2668L13.9732 11.4668L13.3332 10.9334H14.1332L14.3999 10.1334ZM10.1332 10.1334L10.3999 10.9334H11.1999L10.5599 11.4668L10.7732 12.2668L10.1332 11.7868L9.49319 12.2668L9.70652 11.4668L9.06652 10.9334H9.86652L10.1332 10.1334ZM5.86652 10.1334L6.13319 10.9334H6.93319L6.29319 11.4668L6.50652 12.2668L5.86652 11.7868L5.22652 12.2668L5.43986 11.4668L4.79986 10.9334H5.59986L5.86652 10.1334ZM12.2665 13.3334L12.5332 14.1334H13.3332L12.6932 14.6668L12.9065 15.4668L12.2665 14.9868L11.6265 15.4668L11.8399 14.6668L11.1999 14.1334H11.9999L12.2665 13.3334ZM7.99986 13.3334L8.26652 14.1334H9.06652L8.42652 14.6668L8.63986 15.4668L7.99986 14.9868L7.35986 15.4668L7.57319 14.6668L6.93319 14.1334H7.73319L7.99986 13.3334ZM3.73319 13.3334L3.99986 14.1334H4.79986L4.15986 14.6668L4.37319 15.4668L3.73319 14.9868L3.09319 15.4668L3.30652 14.6668L2.66652 14.1334H3.46652L3.73319 13.3334ZM5.22652 5.86678L5.86652 5.38678L6.50652 5.86678L6.23986 5.06678L6.87986 4.53345H6.07986L5.86652 3.73345L5.59986 4.53345H4.85319L5.49319 5.01345L5.22652 5.86678ZM0.959854 12.2668L1.59985 11.7868L2.23985 12.2668L1.97319 11.4668L2.61319 10.9334H1.86652L1.59985 10.1334L1.33319 10.9334H0.799854C0.799854 10.9868 0.746521 11.0401 0.746521 11.0934L1.17319 11.4134L0.959854 12.2668Z" fill="white"/>
</g>
<defs>
<clipPath id="clip0_2001_565">
<rect width="32" height="32" fill="white"/>
</clipPath>
</defs>
</svg>
